<svg xmlns="http://www.w3.org/2000/svg" viewBox="0 0 320 320" width="320" height="320">
  <defs>
    <linearGradient id="amberFire" x1="0%" y1="0%" x2="100%" y2="0%">
      <stop offset="0%" stop-color="#F59E0B"/>
      <stop offset="100%" stop-color="#EF4444"/>
    </linearGradient>
  </defs>
  <rect width="320" height="320" fill="#000000" rx="36"/>

  <circle cx="160" cy="160" r="120" fill="none" stroke="rgba(255,255,255,0.08)" stroke-width="8"/>
  <path d="M 75 245 A 120 120 0 1 1 245 245" fill="none" stroke="url(#amberFire)" stroke-width="8" stroke-linecap="round"/>

  <line x1="160" y1="20" x2="160" y2="35" stroke="#F59E0B" stroke-width="2"/>
  <line x1="160" y1="285" x2="160" y2="300" stroke="#F59E0B" stroke-width="2"/>
  <line x1="20" y1="160" x2="35" y2="160" stroke="#F59E0B" stroke-width="2"/>
  <line x1="285" y1="160" x2="300" y2="160" stroke="#F59E0B" stroke-width="2"/>

  <rect x="125" y="65" width="70" height="20" rx="4" fill="rgba(245, 158, 11, 0.15)" stroke="#F59E0B" stroke-width="1"/>
  <text x="160" y="79" font-family="monospace" font-size="10" font-weight="900" fill="#F59E0B" text-anchor="middle">LVL 99 // MAX</text>

  <text x="160" y="165" font-family="-apple-system, sans-serif" font-size="54" font-weight="900" fill="#FFFFFF" text-anchor="middle" letter-spacing="1">12:30</text>

  <rect x="75" y="195" width="170" height="8" rx="4" fill="rgba(255,255,255,0.1)"/>
  <rect x="75" y="195" width="140" height="8" rx="4" fill="#EF4444"/>
  <text x="65" y="202" font-family="monospace" font-size="9" font-weight="900" fill="#EF4444" text-anchor="end">HP</text>
  <text x="255" y="202" font-family="monospace" font-size="9" font-weight="900" fill="#EF4444">82%</text>

  <rect x="75" y="215" width="170" height="8" rx="4" fill="rgba(255,255,255,0.1)"/>
  <rect x="75" y="215" width="115" height="8" rx="4" fill="#F59E0B"/>
  <text x="65" y="222" font-family="monospace" font-size="9" font-weight="900" fill="#F59E0B" text-anchor="end">STM</text>
  <text x="255" y="222" font-family="monospace" font-size="9" font-weight="900" fill="#F59E0B">6.8K</text>
</svg>