<svg xmlns="http://www.w3.org/2000/svg" viewBox="0 0 360 640" width="100%" height="100%">
      <defs>
        <radialGradient id="samuraiBgHome" cx="50%" cy="40%" r="85%">
          <stop offset="0%" stop-color="#2d0b59"/>
          <stop offset="45%" stop-color="#15032b"/>
          <stop offset="100%" stop-color="#04000a"/>
        </radialGradient>
        <linearGradient id="katanaGlow" x1="0" y1="0" x2="1" y2="1">
          <stop offset="0%" stop-color="#00E5FF"/>
          <stop offset="50%" stop-color="#FF007F"/>
          <stop offset="100%" stop-color="#7000FF"/>
        </linearGradient>
      </defs>
      <rect width="360" height="640" fill="url(#samuraiBgHome)"/>
      <!-- Awakened Cyber Matrix Shockwave Rings -->
      <circle cx="180" cy="240" r="140" fill="none" stroke="#00E5FF" stroke-width="2" stroke-dasharray="16 8" opacity="0.6"/>
      <circle cx="180" cy="240" r="110" fill="none" stroke="#FF007F" stroke-width="2.5" opacity="0.75"/>
      <circle cx="180" cy="240" r="85" fill="none" stroke="#00E5FF" stroke-width="1.5" opacity="0.8"/>
      <!-- Awakened Cyber Samurai with Glowing Neon Eyes & Aura -->
      <path d="M180 150 C160 150 148 165 148 185 C148 205 160 215 180 215 C200 215 212 205 212 185 C212 165 200 150 180 150 Z" fill="#240c4a" stroke="#00E5FF" stroke-width="2.5"/>
      <!-- Glowing Kabuto Horns -->
      <path d="M152 165 L125 125 L145 155 Z" fill="#00E5FF"/>
      <path d="M208 165 L235 125 L215 155 Z" fill="#00E5FF"/>
      <!-- AWAKENED GLOWING NEON CYAN EYES -->
      <ellipse cx="169" cy="186" rx="5" ry="3.5" fill="#00E5FF"/>
      <circle cx="169" cy="186" r="2" fill="#FFFFFF"/>
      <ellipse cx="191" cy="186" rx="5" ry="3.5" fill="#00E5FF"/>
      <circle cx="191" cy="186" r="2" fill="#FFFFFF"/>
      <!-- Eye Neon Flare Trails -->
      <path d="M164 186 Q140 182 120 175" fill="none" stroke="#00E5FF" stroke-width="2" opacity="0.8"/>
      <path d="M196 186 Q220 182 240 175" fill="none" stroke="#00E5FF" stroke-width="2" opacity="0.8"/>
      <!-- Awakened Battle Armor -->
      <path d="M110 270 C110 220 150 210 180 210 C210 210 250 220 250 270 L265 370 L95 370 Z" fill="#15052d" stroke="#FF007F" stroke-width="2.5"/>
      <!-- UNSHEATHED BLAZING ENERGY KATANA -->
      <line x1="60" y1="460" x2="300" y2="220" stroke="url(#katanaGlow)" stroke-width="5" stroke-linecap="round"/>
      <line x1="60" y1="460" x2="300" y2="220" stroke="#FFFFFF" stroke-width="2" stroke-linecap="round"/>
      <!-- Cyber Lightning Sparks -->
      <path d="M140 290 L155 310 L148 325 L165 345" fill="none" stroke="#00E5FF" stroke-width="2"/>
      <path d="M220 285 L205 305 L212 320 L195 340" fill="none" stroke="#FF007F" stroke-width="2"/>
      <!-- Radiant Energy Particles -->
      <circle cx="80" cy="200" r="3" fill="#00E5FF"/>
      <circle cx="280" cy="180" r="3" fill="#FF007F"/>
      <circle cx="180" cy="110" r="3.5" fill="#00E5FF"/>
    </svg>